HIERARCHY
ROOT Hips
{
	OFFSET 0.000000 0.000000 0.000000 
	CHANNELS 6 Xposition Yposition Zposition Yrotation Zrotation Xrotation 
	JOINT Lumbar
	{
		OFFSET 0.000000 0.000000 0.000000 
		CHANNELS 3 Zrotation Xrotation Yrotation
		JOINT Neck
		{
			OFFSET 0.000000 0.445665 0.000000 
			CHANNELS 3 Zrotation Xrotation Yrotation
			End Site
			{
				OFFSET 0.000000 0.227535 0.000000 
			}
		}
		JOINT RightShoulder
		{
			OFFSET 0.019635 0.377685 0.194865 
			CHANNELS 3 Zrotation Xrotation Yrotation
			JOINT RightElbow
			{
				OFFSET 0.000000 -0.243375 0.000000 
				CHANNELS 2 Zrotation Yrotation
				JOINT RightWrist
				{
					OFFSET 0.000000 -0.264825 0.000000 
					CHANNELS 2 Zrotation Xrotation
					End Site
					{
						OFFSET 0.006600 -0.176220 0.000990 
					}
				}
			}
		}
		JOINT LeftShoulder
		{
			OFFSET 0.019635 0.377685 -0.194865 
			CHANNELS 3 Zrotation Xrotation Yrotation
			JOINT LeftElbow
			{
				OFFSET 0.000000 -0.243375 0.000000 
				CHANNELS 2 Zrotation Yrotation
				JOINT LeftWrist
				{
					OFFSET 0.000000 -0.264825 0.000000 
					CHANNELS 2 Zrotation Xrotation
					End Site
					{
						OFFSET 0.006600 -0.176220 -0.000990 
					}
				}
			}
		}
	}
	JOINT RightHip
	{
		OFFSET 0.052140 -0.069960 0.075570 
		CHANNELS 3 Zrotation Xrotation Yrotation
		JOINT RightKnee
		{
			OFFSET 0.000000 -0.402270 0.000000 
			CHANNELS 1 Zrotation
			JOINT RightAnkle
			{
				OFFSET 0.000000 -0.404085 0.000000 
				CHANNELS 3 Zrotation Xrotation Yrotation
				End Site
				{
					OFFSET 0.204105 -0.089430 0.008415 
				}
			}
		}
	}
	JOINT LeftHip
	{
		OFFSET 0.052140 -0.069960 -0.075570 
		CHANNELS 3 Zrotation Xrotation Yrotation
		JOINT LeftKnee
		{
			OFFSET 0.000000 -0.402270 0.000000 
			CHANNELS 1 Zrotation
			JOINT LeftAnkle
			{
				OFFSET 0.000000 -0.404085 0.000000 
				CHANNELS 3 Zrotation Xrotation Yrotation
				End Site
				{
					OFFSET 0.204105 -0.089430 -0.008415 
				}
			}
		}
	}
}
MOTION
Frames: 11
Frame Time: 0.02
0 0.95578 -0 182.65778 0 -4.30299 5.26686 4.94125 -2.74636 -9.14907 1.08908 -1.13682 9.03001 -12.21722 -9.78385 8.00896 87.71515 -2.06485 -1.24826 9.99358 9.75801 33.33481 5.91972 -81.10012 -5.33244 1.69004 -5.28147 5.9615 0.26381 -4.14077 2.46608 -3.29222 -5.63305 -4.61773 3.08097 -6.53388 -4.43561 6.77011 4.25734 5.83657
-0.00018 0.95578 -1e-05 182.6559 0 -4.301 5.36691 4.91828 -2.68791 -9.40739 1.05786 -1.12792 9.3673 -12.22397 -9.35859 8.05344 86.76416 -2.03372 -1.29105 10.3774 9.80992 32.45178 6.08752 -80.89813 -5.38484 1.78133 -5.28713 5.95899 0.26948 -4.15004 2.47705 -3.29509 -5.62962 -4.60672 3.07624 -6.53677 -4.47997 6.79786 4.26147 5.84274
-0.00037 0.95578 -1e-05 182.65457 0 -4.29901 5.46655 4.8953 -2.62982 -9.6643 1.02702 -1.11898 9.70021 -12.23032 -8.93955 8.09673 85.81962 -2.0027 -1.33281 10.75661 9.86066 31.57397 6.25381 -80.69712 -5.43636 1.87132 -5.29297 5.95653 0.27466 -4.15922 2.48813 -3.29798 -5.62629 -4.59582 3.07154 -6.54024 -4.52407 6.82553 4.26573 5.84896
-0.00056 0.95577 -2e-05 182.65546 0 -4.29696 5.56562 4.87218 -2.57292 -9.91813 0.9968 -1.11017 10.02091 -12.23511 -8.53751 8.13667 84.89396 -1.9719 -1.37137 11.12319 9.90852 30.70299 6.41665 -80.49898 -5.485 1.95757 -5.29948 5.95422 0.27798 -4.16813 2.49977 -3.30113 -5.62338 -4.58529 3.06698 -6.54629 -4.56744 6.85304 4.27088 5.85556
-0.00073 0.95578 -3e-05 182.64463 0 -4.29516 5.66781 4.84992 -2.51013 -10.18832 0.96259 -1.10112 10.40876 -12.24816 -8.04089 8.19552 83.8711 -1.94004 -1.4275 11.55922 9.97316 29.78926 6.59886 -80.28672 -5.54905 2.06432 -5.30234 5.9511 0.29119 -4.1785 2.50845 -3.30306 -5.61832 -4.57288 3.06172 -6.53893 -4.61452 6.88126 4.27172 5.86027
-0.00094 0.95576 -3e-05 182.65857 0 -4.29286 5.76325 4.8258 -2.45957 -10.42362 0.93732 -1.09228 10.65251 -12.24371 -7.74788 8.21353 83.05291 -1.91039 -1.44597 11.84616 10.0012 28.9713 6.73918 -80.10379 -5.58035 2.12716 -5.31297 5.94971 0.28348 -4.18574 2.52337 -3.30749 -5.61777 -4.56442 3.05794 -6.55976 -4.65383 6.90805 4.28139 5.86888
-0.00131 0.95568 -0 182.7442 0 -4.28896 5.84246 4.79619 -2.44491 -10.56571 0.93322 -1.08639 10.50448 -12.18915 -8.00427 8.12161 82.81486 -1.88694 -1.36069 11.7288 9.93396 28.3683 6.77 -80.00599 -5.51966 2.06955 -5.3458 5.95321 0.21551 -4.18457 2.55683 -3.31996 -5.63034 -4.56734 3.05832 -6.6635 -4.67097 6.93069 4.31911 5.88981
-0.00172 0.95558 3e-05 182.85434 0 -4.2846 5.91445 4.76472 -2.44219 -10.67208 0.93878 -1.08029 10.20964 -12.11717 -8.46895 7.98789 82.78075 -1.86572 -1.23715 11.45932 9.82863 27.87098 6.75758 -79.93687 -5.42619 1.96737 -5.38636 5.95845 0.12675 -4.18019 2.5964 -3.33478 -5.64734 -4.57416 3.06018 -6.79495 -4.68042 6.95193 4.36515 5.91444
-0.00211 0.9555 6e-05 182.95122 0 -4.2806 5.98833 4.73427 -2.43256 -10.79302 0.94225 -1.07269 9.97774 -12.05428 -8.84696 7.87121 82.64298 -1.84334 -1.13092 11.2546 9.73683 27.35605 6.76077 -79.85188 -5.34857 1.88504 -5.42298 5.96285 0.04908 -4.17708 2.63237 -3.3478 -5.66193 -4.57892 3.06131 -6.9105 -4.69391 6.974 4.40498 5.93639
-0.00252 0.9554 9e-05 183.05698 0 -4.27598 6.06828 4.7031 -2.4291 -10.92126 0.9361 -1.07173 9.76187 -11.98655 -9.19093 7.76253 82.55036 -1.82142 -1.02538 11.06879 9.66095 26.71051 6.7804 -79.77914 -5.26668 1.80456 -5.46151 5.96746 -0.03534 -4.1747 2.67178 -3.36384 -5.67829 -4.58494 3.06266 -7.03973 -4.70515 6.99538 4.45485 5.96247
-0.0029 0.95532 0.00012 183.15018 0 -4.27253 6.13361 4.673 -2.41576 -11.02541 0.95218 -1.05699 9.47765 -11.92463 -9.65567 7.62758 82.41368 -1.79927 -0.90887 10.80691 9.54291 26.36501 6.75625 -79.68737 -5.1862 1.70944 -5.49777 5.97203 -0.11085 -4.17014 2.7055 -3.37426 -5.69191 -4.5892 3.06392 -7.14736 -4.71917 7.01773 4.48607 5.98091
